<svg xmlns="http://www.w3.org/2000/svg" viewBox="0 0 329.96 19.91"><defs><style>.cls-1{fill:#2a2a2a;stroke:#2a2a2a;stroke-miterlimit:10;stroke-width:0.5px;}</style></defs><title>アセット 8</title><g id="レイヤー_2" data-name="レイヤー 2"><g id="レイヤー_1-2" data-name="レイヤー 1"><path class="cls-1" d="M18.71,1V19h-.8V1.94L9.42,19.34,1,1.94V19H.25V1H1.4L9.49,17.61,17.6,1Z"/><path class="cls-1" d="M30.2.57,39.2,19h-.84L35,12.14H25.33L22,19h-.74Zm-.07,1.66-4.49,9.21h9Z"/><path class="cls-1" d="M60.18,1V19h-.79V1.94l-8.5,17.4L42.44,1.94V19h-.72V1h1.15L51,17.61,59.07,1Z"/><path class="cls-1" d="M64.86,1h.79V19h-.79Z"/><path class="cls-1" d="M96.23,1V19h-.8V1.94l-8.49,17.4L78.49,1.94V19h-.72V1h1.15L87,17.61,95.12,1Z"/><path class="cls-1" d="M107.72.57l9,18.43h-.84l-3.41-6.86h-9.62L99.49,19h-.74Zm-.07,1.66-4.49,9.21h9Z"/><path class="cls-1" d="M127,1v.7h-4.11V19h-.79V1.7h-4.15V1Z"/><path class="cls-1" d="M136,2a4.07,4.07,0,0,0-2.13-.57,2.9,2.9,0,0,0-2,.73,2.54,2.54,0,0,0-.83,2v.12A3.48,3.48,0,0,0,132.68,7a19,19,0,0,0,1.62,1.05c.6.34,1.2.71,1.8,1.1a13.21,13.21,0,0,1,1.63,1.25,5.19,5.19,0,0,1,1.2,1.62,4.77,4.77,0,0,1,.47,2.11v.24A4.55,4.55,0,0,1,137.85,18,5.62,5.62,0,0,1,134,19.34a5.29,5.29,0,0,1-4.65-2.47v-1.3a5.43,5.43,0,0,0,1.83,2.22,5.12,5.12,0,0,0,3,.85,4.58,4.58,0,0,0,3.12-1.15,3.87,3.87,0,0,0,1.32-3.07v-.15a4,4,0,0,0-.63-2.19,5.18,5.18,0,0,0-1.56-1.63c-.62-.43-1.3-.87-2-1.34l-2-1.29a5.61,5.61,0,0,1-1.56-1.51,3.52,3.52,0,0,1-.62-2V4.15a3.14,3.14,0,0,1,1.08-2.57A4.07,4.07,0,0,1,134,.69a4.25,4.25,0,0,1,3.51,1.63V3.55A4.18,4.18,0,0,0,136,2Z"/><path class="cls-1" d="M148.62,19.34h-.24a5,5,0,0,1-3.74-1.54,5.27,5.27,0,0,1-1.52-3.86V1h.79V13.91a4.65,4.65,0,0,0,1.32,3.39,4.42,4.42,0,0,0,3.27,1.34,4.37,4.37,0,0,0,3.25-1.33,4.66,4.66,0,0,0,1.31-3.4V1h.79V13.89a5.31,5.31,0,0,1-1.53,3.9A5,5,0,0,1,148.62,19.34Z"/><path class="cls-1" d="M176.86,1V19h-.79V1.94l-8.49,17.4-8.45-17.4V19h-.72V1h1.15l8.09,16.61L175.76,1Z"/><path class="cls-1" d="M182.47,16.51a9.14,9.14,0,0,1-2.73-6.57,8.87,8.87,0,0,1,2.76-6.5,9.34,9.34,0,0,1,13.23,0,8.89,8.89,0,0,1,2.73,6.51,9.15,9.15,0,0,1-2.71,6.58,8.73,8.73,0,0,1-6.48,2.79h-.36A8.66,8.66,0,0,1,182.47,16.51ZM197.67,10a8.33,8.33,0,0,0-2.51-6.07,8.5,8.5,0,0,0-12.1,0A8.3,8.3,0,0,0,180.54,10a8.32,8.32,0,0,0,2.52,6.08,8.44,8.44,0,0,0,12.09,0A8.32,8.32,0,0,0,197.67,10Z"/><path class="cls-1" d="M209.07,1v.7H205V19h-.8V1.7H200V1Z"/><path class="cls-1" d="M213.35,16.51a9.17,9.17,0,0,1-2.72-6.57,8.87,8.87,0,0,1,2.76-6.5A9.06,9.06,0,0,1,220,.69a9,9,0,0,1,6.6,2.74,8.86,8.86,0,0,1,2.74,6.51,9.15,9.15,0,0,1-2.71,6.58,8.73,8.73,0,0,1-6.48,2.79h-.36A8.7,8.7,0,0,1,213.35,16.51ZM228.56,10a8.33,8.33,0,0,0-2.51-6.07,8.51,8.51,0,0,0-12.11,0A8.3,8.3,0,0,0,211.42,10a8.32,8.32,0,0,0,2.52,6.08,8.45,8.45,0,0,0,12.1,0A8.32,8.32,0,0,0,228.56,10Z"/><path class="cls-1" d="M239.79,19.2V8.8h.51v1.76a3.38,3.38,0,0,1,1.35-1.41,3.85,3.85,0,0,1,1.92-.52,3.79,3.79,0,0,1,3.8,3.77,3.79,3.79,0,0,1-3.8,3.78,3.84,3.84,0,0,1-1.88-.52,3.6,3.6,0,0,1-1.39-1.4V19.2Zm.48-6.78a3.35,3.35,0,0,0,3.32,3.31,3.13,3.13,0,0,0,2.31-1,3.32,3.32,0,0,0,0-4.68,3.11,3.11,0,0,0-2.31-1,3.2,3.2,0,0,0-2.33,1A3.27,3.27,0,0,0,240.27,12.42Z"/><path class="cls-1" d="M249.73,16h-.52V4h.52v6.17a2.84,2.84,0,0,1,2.76-1.56,3.14,3.14,0,0,1,3.19,3.18V16h-.51V11.81a2.69,2.69,0,0,0-.79-1.93,2.53,2.53,0,0,0-1.89-.81,2.69,2.69,0,0,0-1.93.82,2.57,2.57,0,0,0-.83,1.92Z"/><path class="cls-1" d="M258.46,15a3.73,3.73,0,0,1-1.1-2.66,3.57,3.57,0,0,1,1.12-2.63,3.81,3.81,0,0,1,5.38,0A3.61,3.61,0,0,1,265,12.38,3.72,3.72,0,0,1,263.89,15a3.53,3.53,0,0,1-2.64,1.14h-.15A3.53,3.53,0,0,1,258.46,15Zm6-2.62a3.22,3.22,0,0,0-1-2.34,3.11,3.11,0,0,0-2.31-1,3.2,3.2,0,0,0-2.33,1,3.27,3.27,0,0,0-1,2.35,3.35,3.35,0,0,0,3.32,3.31,3.13,3.13,0,0,0,2.31-1A3.25,3.25,0,0,0,264.46,12.41Z"/><path class="cls-1" d="M269.71,15.65v.45a2.71,2.71,0,0,1-1.94-.76,2.59,2.59,0,0,1-.8-1.95V5.91h.52V8.82h2.2v.45h-2.2v4.12a2.19,2.19,0,0,0,2.22,2.26Z"/><path class="cls-1" d="M272.33,15a3.73,3.73,0,0,1-1.1-2.66,3.57,3.57,0,0,1,1.12-2.63,3.71,3.71,0,0,1,2.7-1.11,3.65,3.65,0,0,1,2.68,1.11,3.58,3.58,0,0,1,1.12,2.64A3.73,3.73,0,0,1,277.76,15a3.53,3.53,0,0,1-2.64,1.14H275A3.53,3.53,0,0,1,272.33,15Zm6-2.62a3.25,3.25,0,0,0-1-2.34,3.19,3.19,0,0,0-4.64,0,3.24,3.24,0,0,0-1,2.35,3.36,3.36,0,0,0,3.32,3.31,3.13,3.13,0,0,0,2.31-1A3.25,3.25,0,0,0,278.33,12.41Z"/><path class="cls-1" d="M287.05,8.8h.52v6.53a4.09,4.09,0,0,1-1,2.93,3.56,3.56,0,0,1-2.69,1.07,4,4,0,0,1-1.77-.42,3.42,3.42,0,0,1-1.35-1.08v-.74A3.36,3.36,0,0,0,282,18.37a3.58,3.58,0,0,0,1.81.51,3,3,0,0,0,2.31-.95,3.66,3.66,0,0,0,.89-2.6V14.26a3.24,3.24,0,0,1-1.36,1.41,3.8,3.8,0,0,1-1.92.52,3.66,3.66,0,0,1-2.68-1.11,3.73,3.73,0,0,1,0-5.33,3.66,3.66,0,0,1,2.68-1.11,3.9,3.9,0,0,1,2,.52,3.22,3.22,0,0,1,1.33,1.43Zm-6.57,3.62a3.36,3.36,0,0,0,3.32,3.33,3.1,3.1,0,0,0,2.31-1,3.22,3.22,0,0,0,1-2.34,3.26,3.26,0,0,0-1-2.35,3.13,3.13,0,0,0-2.31-1,3.35,3.35,0,0,0-3.32,3.33Z"/><path class="cls-1" d="M292.46,9.07a2.09,2.09,0,0,0-1.49.64,2,2,0,0,0-.65,1.49V16h-.51V8.8h.51V9.87a2.24,2.24,0,0,1,.89-.89,2.63,2.63,0,0,1,1.36-.35,2.35,2.35,0,0,1,1.44.51v.64A2.15,2.15,0,0,0,292.46,9.07Z"/><path class="cls-1" d="M302.56,8.8V16h-.51V14.21a3.35,3.35,0,0,1-1.35,1.44,3.75,3.75,0,0,1-1.92.53,3.7,3.7,0,0,1-2.69-1.11,3.73,3.73,0,0,1,0-5.33,3.7,3.7,0,0,1,2.69-1.11,3.86,3.86,0,0,1,2,.54,2.93,2.93,0,0,1,1.31,1.44V8.8Zm-7.07,3.62a3.35,3.35,0,0,0,3.32,3.31,3.13,3.13,0,0,0,2.31-1,3.32,3.32,0,0,0,0-4.68,3.14,3.14,0,0,0-2.31-1,3.19,3.19,0,0,0-2.33,1A3.23,3.23,0,0,0,295.49,12.42Z"/><path class="cls-1" d="M304.8,19.2V8.8h.51v1.76a3.38,3.38,0,0,1,1.35-1.41,3.79,3.79,0,0,1,1.91-.52,3.68,3.68,0,0,1,2.7,1.11,3.75,3.75,0,0,1,0,5.33,3.68,3.68,0,0,1-2.7,1.11,3.8,3.8,0,0,1-1.87-.52,3.53,3.53,0,0,1-1.39-1.4V19.2Zm.48-6.78a3.35,3.35,0,0,0,3.32,3.31,3.13,3.13,0,0,0,2.31-1,3.32,3.32,0,0,0,0-4.68,3.11,3.11,0,0,0-2.31-1,3.19,3.19,0,0,0-2.33,1A3.27,3.27,0,0,0,305.28,12.42Z"/><path class="cls-1" d="M315.05,16h-.51V4h.51v6.17a2.86,2.86,0,0,1,2.77-1.56A3.14,3.14,0,0,1,321,11.81V16h-.51V11.81a2.68,2.68,0,0,0-.78-1.93,2.53,2.53,0,0,0-1.89-.81,2.67,2.67,0,0,0-1.93.82,2.58,2.58,0,0,0-.84,1.92Z"/><path class="cls-1" d="M329.2,8.8h.51v7a3.27,3.27,0,0,1-1,2.41,3.31,3.31,0,0,1-2.44,1,3.26,3.26,0,0,1-2.73-1.33l0-.8a3.45,3.45,0,0,0,1.18,1.22,2.76,2.76,0,0,0,1.52.46,2.81,2.81,0,0,0,2.05-.86,2.77,2.77,0,0,0,.87-2V14.61a2.81,2.81,0,0,1-2.74,1.57,3.08,3.08,0,0,1-2.27-.94,3,3,0,0,1-.95-2.25V8.8h.52V13a2.65,2.65,0,0,0,.8,1.92,2.65,2.65,0,0,0,3.83,0A2.62,2.62,0,0,0,329.2,13Z"/></g></g></svg>