<svg xmlns="http://www.w3.org/2000/svg" viewBox="0 0 146.57 33.15"><defs><style>.cls-1{fill:#2a2a2a;stroke:#2a2a2a;stroke-miterlimit:10;stroke-width:0.5px;}</style></defs><title>アセット 9</title><g id="レイヤー_2" data-name="レイヤー 2"><g id="レイヤー_1-2" data-name="レイヤー 1"><path class="cls-1" d="M12,.93V13.68h-.5V1.59L6.11,13.92.72,1.59V13.68H.27V.93H1L6.16,12.69,11.33.93Z"/><path class="cls-1" d="M19.36.62,25.1,13.68h-.54L22.39,8.82H16.25l-2.14,4.86h-.47ZM19.31,1.8,16.45,8.32h5.76Z"/><path class="cls-1" d="M38.47.93V13.68H38V1.59L32.55,13.92,27.16,1.59V13.68H26.7V.93h.74l5.15,11.76L37.77.93Z"/><path class="cls-1" d="M41.45.93H42V13.68h-.51Z"/><path class="cls-1" d="M61.45.93V13.68h-.51V1.59L55.53,13.92,50.14,1.59V13.68h-.46V.93h.74l5.15,11.76L60.75.93Z"/><path class="cls-1" d="M68.78.62l5.73,13.06H74L71.81,8.82H65.67l-2.14,4.86h-.47Zm0,1.18L65.87,8.32h5.75Z"/><path class="cls-1" d="M81.05.93v.49H78.43V13.68h-.5V1.42H75.28V.93Z"/><path class="cls-1" d="M86.78,1.61a2.42,2.42,0,0,0-1.36-.41,1.72,1.72,0,0,0-1.27.52,1.88,1.88,0,0,0-.53,1.42v.08a2.54,2.54,0,0,0,1.07,2c.31.25.65.49,1,.74s.77.5,1.15.78a9.09,9.09,0,0,1,1,.88,3.72,3.72,0,0,1,.76,1.15,3.65,3.65,0,0,1,.3,1.5v.17A3.41,3.41,0,0,1,88,13a3.36,3.36,0,0,1-2.44,1,3.3,3.3,0,0,1-3-1.75v-.92a3.7,3.7,0,0,0,1.17,1.57,3,3,0,0,0,1.92.6,2.78,2.78,0,0,0,2-.81,2.91,2.91,0,0,0,.84-2.18v-.1a3.1,3.1,0,0,0-.4-1.56,3.7,3.7,0,0,0-1-1.15c-.4-.3-.83-.62-1.3-1l-1.3-.91a3.79,3.79,0,0,1-1-1.07,2.74,2.74,0,0,1-.4-1.42V3.16a2.33,2.33,0,0,1,.69-1.82A2.43,2.43,0,0,1,85.5.71a2.59,2.59,0,0,1,2.23,1.15v.87A2.76,2.76,0,0,0,86.78,1.61Z"/><path class="cls-1" d="M94.85,13.92h-.16a3.07,3.07,0,0,1-2.37-1.09,4,4,0,0,1-1-2.74V.93h.51v9.15a3.47,3.47,0,0,0,.84,2.39,2.75,2.75,0,0,0,4.15,0,3.48,3.48,0,0,0,.84-2.4V.93h.5v9.13a4,4,0,0,1-1,2.76A3,3,0,0,1,94.85,13.92Z"/><path class="cls-1" d="M112.86.93V13.68h-.51V1.59l-5.41,12.33L101.55,1.59V13.68h-.46V.93h.73L107,12.69,112.15.93Z"/><path class="cls-1" d="M116.43,11.91a6.82,6.82,0,0,1-1.74-4.65,6.67,6.67,0,0,1,1.76-4.61A5.51,5.51,0,0,1,120.67.71a5.43,5.43,0,0,1,4.21,1.94,6.68,6.68,0,0,1,1.75,4.61,6.87,6.87,0,0,1-1.73,4.66,5.32,5.32,0,0,1-4.13,2h-.23A5.29,5.29,0,0,1,116.43,11.91Zm9.69-4.61A6.24,6.24,0,0,0,124.52,3a5.06,5.06,0,0,0-7.72,0,6.24,6.24,0,0,0-1.6,4.31,6.23,6.23,0,0,0,1.6,4.3,5,5,0,0,0,7.71,0A6.19,6.19,0,0,0,126.12,7.3Z"/><path class="cls-1" d="M133.39.93v.49h-2.62V13.68h-.5V1.42h-2.65V.93Z"/><path class="cls-1" d="M136.12,11.91a6.82,6.82,0,0,1-1.74-4.65,6.67,6.67,0,0,1,1.76-4.61A5.52,5.52,0,0,1,140.37.71a5.42,5.42,0,0,1,4.2,1.94,6.63,6.63,0,0,1,1.75,4.61,6.87,6.87,0,0,1-1.73,4.66,5.31,5.31,0,0,1-4.13,2h-.23A5.29,5.29,0,0,1,136.12,11.91Zm9.69-4.61A6.24,6.24,0,0,0,144.21,3a5,5,0,0,0-3.85-1.79A5,5,0,0,0,136.49,3a6.24,6.24,0,0,0-1.6,4.31,6.23,6.23,0,0,0,1.6,4.3,5,5,0,0,0,7.72,0A6.23,6.23,0,0,0,145.81,7.3Z"/><path class="cls-1" d="M.25,19.93h.5a3.52,3.52,0,0,1,2.71,1.21A4.09,4.09,0,0,1,4.58,24a4,4,0,0,1-1.16,2.84A3.49,3.49,0,0,1,.88,28H.75v4.64H.25Zm.5,7.63H.88a3,3,0,0,0,2.24-1,3.58,3.58,0,0,0,1-2.5,3.64,3.64,0,0,0-1-2.52A2.93,2.93,0,0,0,.88,20.42H.75Z"/><path class="cls-1" d="M15.52,19.93H16V32.68h-.5V27.82H7.65v4.86h-.5V19.93h.5v7.39h7.87Z"/><path class="cls-1" d="M20.21,30.91a6.82,6.82,0,0,1-1.74-4.65,6.67,6.67,0,0,1,1.76-4.61,5.51,5.51,0,0,1,4.22-1.94,5.43,5.43,0,0,1,4.21,1.94,6.68,6.68,0,0,1,1.75,4.61,6.87,6.87,0,0,1-1.73,4.66,5.32,5.32,0,0,1-4.13,2h-.23A5.29,5.29,0,0,1,20.21,30.91ZM29.9,26.3A6.24,6.24,0,0,0,28.3,22a5.06,5.06,0,0,0-7.72,0A6.24,6.24,0,0,0,19,26.3a6.23,6.23,0,0,0,1.6,4.3,5,5,0,0,0,7.71,0A6.19,6.19,0,0,0,29.9,26.3Z"/><path class="cls-1" d="M37.78,19.93v.49H35.16V32.68h-.5V20.42H32v-.49Z"/><path class="cls-1" d="M41.12,30.91a6.86,6.86,0,0,1-1.73-4.65,6.63,6.63,0,0,1,1.76-4.61,5.55,5.55,0,0,1,8.43,0,6.67,6.67,0,0,1,1.74,4.61,6.87,6.87,0,0,1-1.73,4.66,5.31,5.31,0,0,1-4.13,2h-.23A5.29,5.29,0,0,1,41.12,30.91Zm9.7-4.61A6.29,6.29,0,0,0,49.22,22a5.06,5.06,0,0,0-7.72,0,6.56,6.56,0,0,0,0,8.61,5,5,0,0,0,7.71,0A6.24,6.24,0,0,0,50.82,26.3Z"/><path class="cls-1" d="M57.47,27.82v-.5h4.3v4.61a5.23,5.23,0,0,1-3,.94h-.17A5.13,5.13,0,0,1,55.64,32a6.43,6.43,0,0,1-2.15-2.44,6.9,6.9,0,0,1-.79-3.24,6.67,6.67,0,0,1,1.76-4.65,5.46,5.46,0,0,1,4.2-1.95,5.58,5.58,0,0,1,3.11,1v.62a5.07,5.07,0,0,0-3.11-1.08A5,5,0,0,0,54.81,22a6.56,6.56,0,0,0,0,8.61,5,5,0,0,0,3.85,1.8,5.64,5.64,0,0,0,2.61-.71V27.82Z"/><path class="cls-1" d="M64.68,19.93h.65a3.45,3.45,0,0,1,2.61,1.21A4.09,4.09,0,0,1,69.07,24a4,4,0,0,1-1.15,2.85,3.38,3.38,0,0,1-2.46,1.2h-.11l4,4.63h-.66l-3.47-4.05v4.05h-.49Zm.49,7.63h.27a2.87,2.87,0,0,0,2.19-1,3.75,3.75,0,0,0,0-5,3,3,0,0,0-2.23-1.07h-.2Z"/><path class="cls-1" d="M76.55,19.62l5.74,13.06h-.54l-2.17-4.86H73.44L71.3,32.68h-.47Zm0,1.18-2.86,6.52H79.4Z"/><path class="cls-1" d="M84.8,19.93h.5A3.54,3.54,0,0,1,88,21.14,4.13,4.13,0,0,1,89.13,24,4,4,0,0,1,88,26.85,3.51,3.51,0,0,1,85.42,28H85.3v4.64h-.5Zm.5,7.63h.12a3,3,0,0,0,2.25-1,3.76,3.76,0,0,0,0-5,3,3,0,0,0-2.23-1.07H85.3Z"/><path class="cls-1" d="M100.37,19.93h.51V32.68h-.51V27.82H92.51v4.86H92V19.93h.51v7.39h7.86Z"/><path class="cls-1" d="M107.24,32.68h-.5v-5.1l-3.49-7.65h.55L107,27l3.16-7h.46l-3.41,7.65Z"/></g></g></svg>