<svg xmlns="http://www.w3.org/2000/svg" viewBox="0 0 362.08 17.56"><defs><style>.cls-1{fill:#2a2a2a;stroke:#2a2a2a;stroke-miterlimit:10;stroke-width:0.5px;}</style></defs><title>アセット 7</title><g id="レイヤー_2" data-name="レイヤー 2"><g id="レイヤー_1-2" data-name="レイヤー 1"><path class="cls-1" d="M16.4,1V16.7h-.69V1.77L8.27,17,.88,1.77V16.7H.25V1h1L8.33,15.48,15.43,1Z"/><path class="cls-1" d="M26.46.57,34.33,16.7H33.6l-3-6H22.19l-2.94,6H18.6ZM26.39,2l-3.92,8.06h7.89Z"/><path class="cls-1" d="M52.69,1V16.7H52V1.77L44.56,17,37.17,1.77V16.7h-.63V1h1l7.07,14.53L51.72,1Z"/><path class="cls-1" d="M56.78,1h.69V16.7h-.69Z"/><path class="cls-1" d="M84.23,1V16.7h-.7V1.77L76.1,17,68.71,1.77V16.7h-.63V1h1l7.07,14.53L83.26,1Z"/><path class="cls-1" d="M94.29.57l7.87,16.13h-.73l-3-6H90l-2.94,6h-.65ZM94.22,2,90.3,10.08h7.89Z"/><path class="cls-1" d="M111.13,1v.61h-3.59V16.7h-.7V1.56h-3.63V1Z"/><path class="cls-1" d="M119,1.79a3.47,3.47,0,0,0-1.86-.51,2.59,2.59,0,0,0-1.75.64,2.25,2.25,0,0,0-.72,1.76v.1a3.05,3.05,0,0,0,1.47,2.42,15,15,0,0,0,1.41.91c.53.3,1,.63,1.58,1a11.44,11.44,0,0,1,1.43,1.09,4.9,4.9,0,0,1,1,1.42,4.17,4.17,0,0,1,.41,1.84v.22a4,4,0,0,1-1.36,3.17A4.94,4.94,0,0,1,117.3,17a4.62,4.62,0,0,1-4.07-2.16V13.7a4.8,4.8,0,0,0,1.6,1.94,4.54,4.54,0,0,0,2.64.74,4,4,0,0,0,2.73-1,3.4,3.4,0,0,0,1.15-2.69v-.13a3.57,3.57,0,0,0-.54-1.92,4.8,4.8,0,0,0-1.37-1.43c-.54-.37-1.14-.76-1.78-1.16l-1.79-1.14a4.75,4.75,0,0,1-1.36-1.32A3,3,0,0,1,114,3.85V3.7a2.75,2.75,0,0,1,1-2.25,3.53,3.53,0,0,1,2.33-.78,3.73,3.73,0,0,1,3.07,1.43V3.17A3.65,3.65,0,0,0,119,1.79Z"/><path class="cls-1" d="M130.07,17h-.21a4.45,4.45,0,0,1-3.27-1.34,4.6,4.6,0,0,1-1.33-3.38V1H126v11.3a4.06,4.06,0,0,0,1.16,3A3.85,3.85,0,0,0,130,16.38a3.81,3.81,0,0,0,2.85-1.16,4.08,4.08,0,0,0,1.14-3V1h.7V12.23a4.66,4.66,0,0,1-1.34,3.41A4.39,4.39,0,0,1,130.07,17Z"/><path class="cls-1" d="M154.79,1V16.7h-.7V1.77L146.66,17,139.27,1.77V16.7h-.63V1h1l7.07,14.53L153.82,1Z"/><path class="cls-1" d="M159.69,14.51a8,8,0,0,1-2.38-5.74,7.75,7.75,0,0,1,2.41-5.69,7.94,7.94,0,0,1,5.8-2.41,7.85,7.85,0,0,1,5.77,2.4,7.79,7.79,0,0,1,2.4,5.7,8,8,0,0,1-2.38,5.75A7.59,7.59,0,0,1,165.64,17h-.31A7.6,7.6,0,0,1,159.69,14.51ZM173,8.81A7.3,7.3,0,0,0,170.8,3.5a7.44,7.44,0,0,0-10.6,0A7.27,7.27,0,0,0,158,8.81a7.31,7.31,0,0,0,2.2,5.33,7.42,7.42,0,0,0,10.59,0A7.31,7.31,0,0,0,173,8.81Z"/><path class="cls-1" d="M183,1v.61h-3.59V16.7h-.7V1.56h-3.63V1Z"/><path class="cls-1" d="M186.72,14.51a8,8,0,0,1-2.39-5.74,7.76,7.76,0,0,1,2.42-5.69,8.16,8.16,0,0,1,11.57,0,7.82,7.82,0,0,1,2.39,5.7,8,8,0,0,1-2.37,5.75A7.59,7.59,0,0,1,192.67,17h-.32A7.58,7.58,0,0,1,186.72,14.51ZM200,8.81a7.3,7.3,0,0,0-2.19-5.31,7.44,7.44,0,0,0-10.6,0A7.27,7.27,0,0,0,185,8.81a7.31,7.31,0,0,0,2.2,5.33,7.41,7.41,0,0,0,10.58,0A7.32,7.32,0,0,0,200,8.81Z"/><path class="cls-1" d="M210.56,1h.69A5.12,5.12,0,0,1,215,2.45,4.8,4.8,0,0,1,216.5,6a4.61,4.61,0,0,1-1.58,3.51,5,5,0,0,1-3.5,1.47h-.17V16.7h-.69Zm.69,9.43h.17a4.27,4.27,0,0,0,3.08-1.3,4.3,4.3,0,0,0,0-6.2,4.23,4.23,0,0,0-3.06-1.32h-.17Z"/><path class="cls-1" d="M231.52,1h.69V16.7h-.69v-6H220.73v6H220V1h.7v9.13h10.79Z"/><path class="cls-1" d="M238,14.51a8,8,0,0,1-2.39-5.74A7.76,7.76,0,0,1,238,3.08a8.16,8.16,0,0,1,11.57,0A7.82,7.82,0,0,1,252,8.77a8,8,0,0,1-2.37,5.75A7.59,7.59,0,0,1,243.91,17h-.32A7.56,7.56,0,0,1,238,14.51Zm13.3-5.7a7.27,7.27,0,0,0-2.2-5.31,7.42,7.42,0,0,0-10.59,0,7.27,7.27,0,0,0-2.2,5.31,7.31,7.31,0,0,0,2.2,5.33,7.41,7.41,0,0,0,10.58,0A7.32,7.32,0,0,0,251.26,8.81Z"/><path class="cls-1" d="M262.07,1v.61h-3.59V16.7h-.69V1.56h-3.63V1Z"/><path class="cls-1" d="M266.24,14.51a8,8,0,0,1-2.38-5.74,7.75,7.75,0,0,1,2.41-5.69,8.17,8.17,0,0,1,11.58,0,7.82,7.82,0,0,1,2.39,5.7,8,8,0,0,1-2.37,5.75A7.62,7.62,0,0,1,272.2,17h-.32A7.6,7.6,0,0,1,266.24,14.51Zm13.31-5.7a7.3,7.3,0,0,0-2.2-5.31,7.42,7.42,0,0,0-10.59,0,7.28,7.28,0,0,0-2.21,5.31,7.32,7.32,0,0,0,2.21,5.33,7.41,7.41,0,0,0,10.58,0A7.32,7.32,0,0,0,279.55,8.81Z"/><path class="cls-1" d="M288.68,10.69v-.61h5.9v5.69a7.69,7.69,0,0,1-4.16,1.16h-.23a7.69,7.69,0,0,1-4-1.13,8.45,8.45,0,0,1-3-3,7.88,7.88,0,0,1-1.08-4A7.81,7.81,0,0,1,284.54,3,7.89,7.89,0,0,1,290.32.63a8.35,8.35,0,0,1,4.26,1.18v.78a7.37,7.37,0,0,0-4.26-1.35A7.19,7.19,0,0,0,285,3.46a7.26,7.26,0,0,0-2.21,5.31A7.28,7.28,0,0,0,285,14.09a7.16,7.16,0,0,0,5.29,2.23,8.23,8.23,0,0,0,3.57-.88V10.69Z"/><path class="cls-1" d="M298.57,1h.91a5,5,0,0,1,3.58,1.5A4.8,4.8,0,0,1,304.6,6,4.71,4.71,0,0,1,303,9.5,4.86,4.86,0,0,1,299.64,11h-.14l5.41,5.71H304l-4.77-5v5h-.67Zm.67,9.43h.38a4.12,4.12,0,0,0,3-1.3,4.28,4.28,0,0,0,0-6.2,4.23,4.23,0,0,0-3.06-1.32h-.28Z"/><path class="cls-1" d="M314.87.57l7.87,16.13H322l-3-6H310.6l-2.94,6H307ZM314.8,2l-3.92,8.06h7.89Z"/><path class="cls-1" d="M326.19,1h.69a5.13,5.13,0,0,1,3.72,1.5A4.8,4.8,0,0,1,332.13,6a4.62,4.62,0,0,1-1.59,3.51A5,5,0,0,1,327.05,11h-.17V16.7h-.69Zm.69,9.43h.17a4.25,4.25,0,0,0,3.07-1.3,4.28,4.28,0,0,0,0-6.2,4.21,4.21,0,0,0-3.05-1.32h-.17Z"/><path class="cls-1" d="M347.56,1h.7V16.7h-.7v-6H336.77v6h-.69V1h.69v9.13h10.79Z"/><path class="cls-1" d="M357,16.7h-.69V10.4L351.51,1h.76l4.43,8.71L361.05,1h.63L357,10.4Z"/></g></g></svg>